<svg width="64" height="64" viewBox="0 0 64 64" fill="none" xmlns="http://www.w3.org/2000/svg">
<path d="M53.1875 6.12524C52.9765 6.12524 52.7734 6.22681 52.5625 6.43774L51.0625 7.93774L50.4375 7.31274L49.5625 8.12524L50.25 8.81274L49.375 9.62524L48.75 9.00024L47.875 9.87524L48.5 10.5002L47.0625 12.0002C46.6328 12.4299 46.6328 12.8206 47.0625 13.2502L38.6875 21.6252C36.8203 20.1331 34.8281 19.0002 32.9375 18.4377C29.4219 17.3987 26.2969 18.1487 23.875 20.5627C22.8047 21.6331 22.1484 22.9377 21.875 24.5002C21.4375 27.0315 19.2031 29.0081 16.5625 29.1877C13.6797 29.3831 11.1484 30.5393 9.24998 32.4377C4.24216 37.4456 5.14841 46.5315 11.3125 52.6877C14.8125 56.1877 19.2734 58.0002 23.375 58.0002C26.5 58.0002 29.3984 56.9143 31.5625 54.7502C33.4609 52.8518 34.6172 50.3206 34.8125 47.4377C34.9922 44.7971 36.9062 42.5627 39.4375 42.1252C41 41.8518 42.3672 41.1956 43.4375 40.1252C45.8515 37.7112 46.6015 34.5784 45.5625 31.0627C45.2187 29.8909 44.6015 28.6956 43.875 27.5002L40.9375 30.4377C41.25 31.0393 41.5156 31.6174 41.6875 32.1877C42.3047 34.2659 41.9765 35.9612 40.625 37.3127C40.1406 37.7893 39.5625 38.0549 38.8125 38.1877C34.4844 38.9377 31.1094 42.7346 30.8125 47.1877C30.6875 49.0862 29.9531 50.7268 28.75 51.9377C25.2969 55.3831 18.789 54.4768 14.1875 49.8752C9.58591 45.2737 8.61716 38.6956 12.0625 35.2502C13.2734 34.0471 14.914 33.3127 16.8125 33.1877C21.2656 32.8909 25.0547 29.5159 25.8125 25.1877C25.9453 24.4377 26.2031 23.8596 26.6875 23.3752C27.6172 22.4456 28.6797 22.0002 29.9375 22.0002C30.5078 22.0002 31.164 22.1174 31.8125 22.3127C33.0703 22.6877 34.4765 23.4299 35.8125 24.4377L29.125 31.1252C28.7656 31.0393 28.3906 31.0002 28 31.0002C25.2422 31.0002 23 33.2424 23 36.0002C23 38.7581 25.2422 41.0002 28 41.0002C30.7578 41.0002 33 38.7581 33 36.0002C33 35.6956 32.9297 35.4143 32.875 35.1252L51.0625 16.8752C51.4922 17.3049 51.9453 17.3049 52.375 16.8752L53.875 15.3752L54.5 16.0002L55.3125 15.1877L54.6875 14.5627L55.5625 13.6877L56 14.5627L56.8125 13.6877L56.1875 13.0627L57.6875 11.5627C58.1172 11.1331 58.1172 10.6799 57.6875 10.2502L53.875 6.43774C53.664 6.22681 53.3984 6.12524 53.1875 6.12524ZM53 8.56274L53.875 9.43774L50 13.2502L49.1875 12.4377L53 8.56274ZM54.6875 10.0627L55.5625 10.9377L51.6875 14.7502L50.875 13.8752L54.6875 10.0627ZM18.1875 39.3752L15.375 42.1877L21.8125 48.6252L24.625 45.8127L18.1875 39.3752Z" fill="#CF67D8"/>
</svg>
