<svg width="32" height="33" viewBox="0 0 32 33" fill="none" xmlns="http://www.w3.org/2000/svg">
<g id="Group 1000001750">
<circle id="Ellipse 796" cx="16" cy="16.0376" r="16" fill="#CF67D8"/>
<path id="Vector" fill-rule="evenodd" clip-rule="evenodd" d="M12.7018 8.62271C13.5549 8.58343 13.8269 8.57471 16 8.57471C18.1731 8.57471 18.4451 8.58416 19.2975 8.62271C20.1498 8.66125 20.7316 8.79725 21.2407 8.99434C21.7738 9.1958 22.2575 9.51071 22.6575 9.91798C23.0647 10.3173 23.3789 10.8002 23.5796 11.334C23.7775 11.8431 23.9127 12.4249 23.952 13.2758C23.9913 14.1303 24 14.4023 24 16.5747C24 18.7478 23.9905 19.0198 23.952 19.8729C23.9135 20.7238 23.7775 21.3056 23.5796 21.8147C23.3789 22.3486 23.0642 22.8323 22.6575 23.2322C22.2575 23.6394 21.7738 23.9536 21.2407 24.1543C20.7316 24.3522 20.1498 24.4874 19.2989 24.5267C18.4451 24.566 18.1731 24.5747 16 24.5747C13.8269 24.5747 13.5549 24.5653 12.7018 24.5267C11.8509 24.4882 11.2691 24.3522 10.76 24.1543C10.2261 23.9536 9.74241 23.6389 9.34255 23.2322C8.93555 22.8326 8.62059 22.3492 8.41964 21.8154C8.22255 21.3063 8.08727 20.7245 8.048 19.8736C8.00873 19.0191 8 18.7471 8 16.5747C8 14.4016 8.00945 14.1296 8.048 13.2773C8.08655 12.4249 8.22255 11.8431 8.41964 11.334C8.62089 10.8002 8.93609 10.3168 9.34327 9.91725C9.74257 9.51034 10.2258 9.19539 10.7593 8.99434C11.2684 8.79725 11.8502 8.66198 12.7011 8.62271H12.7018ZM19.2327 10.0627C18.3891 10.0242 18.136 10.0162 16 10.0162C13.864 10.0162 13.6109 10.0242 12.7673 10.0627C11.9869 10.0983 11.5636 10.2285 11.2815 10.3383C10.9084 10.4838 10.6415 10.6562 10.3615 10.9362C10.096 11.1944 9.89177 11.5087 9.76364 11.8562C9.65382 12.1383 9.52364 12.5616 9.488 13.342C9.44945 14.1856 9.44145 14.4387 9.44145 16.5747C9.44145 18.7107 9.44945 18.9638 9.488 19.8074C9.52364 20.5878 9.65382 21.0111 9.76364 21.2933C9.89164 21.6402 10.096 21.9551 10.3615 22.2133C10.6196 22.4787 10.9345 22.6831 11.2815 22.8111C11.5636 22.9209 11.9869 23.0511 12.7673 23.0867C13.6109 23.1253 13.8633 23.1333 16 23.1333C18.1367 23.1333 18.3891 23.1253 19.2327 23.0867C20.0131 23.0511 20.4364 22.9209 20.7185 22.8111C21.0916 22.6656 21.3585 22.4933 21.6385 22.2133C21.904 21.9551 22.1084 21.6402 22.2364 21.2933C22.3462 21.0111 22.4764 20.5878 22.512 19.8074C22.5505 18.9638 22.5585 18.7107 22.5585 16.5747C22.5585 14.4387 22.5505 14.1856 22.512 13.342C22.4764 12.5616 22.3462 12.1383 22.2364 11.8562C22.0909 11.4831 21.9185 11.2162 21.6385 10.9362C21.3803 10.6708 21.066 10.4665 20.7185 10.3383C20.4364 10.2285 20.0131 10.0983 19.2327 10.0627V10.0627ZM14.9782 19.0409C15.5488 19.2784 16.1843 19.3105 16.7759 19.1316C17.3676 18.9527 17.8788 18.5739 18.2223 18.06C18.5657 17.546 18.72 16.9288 18.6589 16.3137C18.5978 15.6986 18.3251 15.1238 17.8873 14.6874C17.6082 14.4085 17.2707 14.1949 16.8992 14.0621C16.5276 13.9292 16.1312 13.8804 15.7385 13.9192C15.3459 13.9579 14.9667 14.0832 14.6282 14.2861C14.2898 14.4889 14.0005 14.7643 13.7813 15.0924C13.5621 15.4205 13.4183 15.7931 13.3604 16.1834C13.3024 16.5737 13.3317 16.972 13.4462 17.3496C13.5607 17.7272 13.7574 18.0748 14.0223 18.3672C14.2872 18.6597 14.6137 18.8898 14.9782 19.0409ZM13.0924 13.6671C13.4742 13.2852 13.9275 12.9823 14.4264 12.7757C14.9253 12.569 15.46 12.4627 16 12.4627C16.54 12.4627 17.0747 12.569 17.5736 12.7757C18.0725 12.9823 18.5258 13.2852 18.9076 13.6671C19.2895 14.0489 19.5924 14.5022 19.799 15.0011C20.0057 15.5 20.112 16.0347 20.112 16.5747C20.112 17.1147 20.0057 17.6494 19.799 18.1483C19.5924 18.6472 19.2895 19.1005 18.9076 19.4823C18.1365 20.2535 17.0906 20.6867 16 20.6867C14.9094 20.6867 13.8635 20.2535 13.0924 19.4823C12.3212 18.7112 11.888 17.6653 11.888 16.5747C11.888 15.4841 12.3212 14.4382 13.0924 13.6671V13.6671ZM21.024 13.0751C21.1186 12.9858 21.1944 12.8785 21.2468 12.7594C21.2992 12.6404 21.3271 12.512 21.329 12.3819C21.3309 12.2519 21.3067 12.1227 21.2578 12.0022C21.2089 11.8817 21.1363 11.7722 21.0443 11.6802C20.9524 11.5882 20.8429 11.5156 20.7223 11.4667C20.6018 11.4178 20.4727 11.3936 20.3426 11.3955C20.2125 11.3974 20.0842 11.4254 19.9651 11.4778C19.8461 11.5302 19.7387 11.6059 19.6495 11.7005C19.4759 11.8845 19.3808 12.129 19.3845 12.3819C19.3882 12.6349 19.4903 12.8764 19.6692 13.0553C19.8481 13.2342 20.0896 13.3363 20.3426 13.34C20.5955 13.3437 20.84 13.2487 21.024 13.0751V13.0751Z" fill="white"/>
</g>
</svg>
