<svg width="24" height="25" viewBox="0 0 24 25" fill="none" xmlns="http://www.w3.org/2000/svg">
<g id="map-pin-solid 1">
<path id="Vector" d="M12 4.2876C9.1084 4.2876 6.75 6.646 6.75 9.5376C6.75 12.1743 8.71289 14.3511 11.25 14.7173V21.5376H12.75V14.7173C15.2871 14.3511 17.25 12.1743 17.25 9.5376C17.25 6.646 14.8916 4.2876 12 4.2876ZM12 5.7876C14.0801 5.7876 15.75 7.45752 15.75 9.5376C15.75 11.6177 14.0801 13.2876 12 13.2876C9.91992 13.2876 8.25 11.6177 8.25 9.5376C8.25 7.45752 9.91992 5.7876 12 5.7876ZM12 6.5376C10.3506 6.5376 9 7.88818 9 9.5376H10.5C10.5 8.69971 11.1621 8.0376 12 8.0376V6.5376Z" fill="#CF67D8"/>
</g>
</svg>
