<svg width="64" height="64" viewBox="0 0 64 64" fill="none" xmlns="http://www.w3.org/2000/svg">
<path d="M42 8.00024C34.8438 8.00024 28.9375 13.4299 28.125 20.3752L12 43.1877L11.0625 44.5627L12.1875 45.7502L13.8125 47.3752L8.5625 52.5627L11.4375 55.4377L16.5625 50.2502L19.3125 53.0002L20.75 52.0002L43.6875 35.8752C50.6094 35.0393 56 29.1409 56 22.0002C56 14.2893 49.7109 8.00024 42 8.00024ZM42 12.0002C47.5469 12.0002 52 16.4534 52 22.0002C52 24.0315 51.4062 25.9299 50.375 27.5002L36.5 13.6252C38.0703 12.594 39.9688 12.0002 42 12.0002ZM33.625 16.5002L47.5 30.3752C45.9297 31.4065 44.0312 32.0002 42 32.0002C36.4531 32.0002 32 27.5471 32 22.0002C32 19.969 32.5938 18.0706 33.625 16.5002ZM28.75 26.3752C30.1406 30.5237 33.4141 33.844 37.5625 35.2502L19.8125 47.8127L16.25 44.1252L28.75 26.3752Z" fill="#CF67D8"/>
</svg>
