<svg width="24" height="25" viewBox="0 0 24 25" fill="none" xmlns="http://www.w3.org/2000/svg">
<g id="phone-volume-solid 1" clip-path="url(#clip0_1047_462)">
<path id="Vector" d="M14.2502 0.537598V2.0376C18.7989 2.0376 22.5002 5.73885 22.5002 10.2876H24.0002C24.0002 4.9116 19.6262 0.537598 14.2502 0.537598ZM6.48798 2.79199C6.09432 2.79199 5.70101 2.92043 5.38056 3.17871L5.34394 3.20801L2.98554 5.64111L3.03534 5.59424C2.25487 6.26641 2.03977 7.32819 2.3747 8.2207C3.0067 10.0432 4.61782 13.5673 7.79608 16.7417C10.9811 19.9306 14.5423 21.4727 16.3039 22.1602L16.3215 22.166L16.3391 22.1719C17.2499 22.4772 18.2338 22.2594 18.9392 21.6562L18.9611 21.6372L21.3049 19.2935C21.927 18.6713 21.927 17.5806 21.3049 16.9585L18.2316 13.8823C17.6077 13.2584 16.5176 13.2584 15.8937 13.8823L14.4055 15.3706C13.8727 15.1163 12.5618 14.4566 11.3161 13.2686C10.0866 12.0961 9.45895 10.7409 9.23163 10.2173L10.7316 8.71729C11.3898 8.05909 11.4273 6.92906 10.6686 6.3252L10.7375 6.38818L7.63056 3.20801L7.5954 3.17871C7.27494 2.92044 6.88164 2.79199 6.48798 2.79199ZM14.2502 3.5376V5.0376C17.1444 5.0376 19.5002 7.3926 19.5002 10.2876H21.0002C21.0002 6.5661 17.9724 3.5376 14.2502 3.5376ZM6.48944 4.2876C6.54289 4.28751 6.59562 4.30765 6.64765 4.34766L9.69745 7.4707L9.73407 7.5C9.72545 7.49314 9.76289 7.56493 9.67108 7.65674L7.45331 9.87451L7.6247 10.3271C7.6247 10.3271 8.47118 12.6287 10.2805 14.354C12.0596 16.0508 14.2531 16.9775 14.2531 16.9775L14.7204 17.1768L16.9543 14.9429C17.0804 14.8168 17.045 14.8168 17.1711 14.9429L20.2443 18.019C20.3722 18.1469 20.3722 18.105 20.2443 18.2329L17.9592 20.5181C17.6112 20.8138 17.2517 20.8913 16.8195 20.748C15.1229 20.0846 11.8046 18.6328 8.85663 15.6812C5.88818 12.7163 4.34998 9.34754 3.78534 7.71533L3.78241 7.70654L3.77802 7.69629C3.66445 7.39596 3.74746 6.96038 4.01386 6.73096L4.03876 6.70898L6.32978 4.34766C6.38183 4.30802 6.436 4.28769 6.48944 4.2876ZM14.2502 6.5376V8.0376C15.4907 8.0376 16.5002 9.0471 16.5002 10.2876H18.0002C18.0002 8.21985 16.3179 6.5376 14.2502 6.5376Z" fill="#CF67D8"/>
</g>
<defs>
<clipPath id="clip0_1047_462">
<rect width="24" height="24" fill="white" transform="translate(0 0.537598)"/>
</clipPath>
</defs>
</svg>
