<svg width="64" height="64" viewBox="0 0 64 64" fill="none" xmlns="http://www.w3.org/2000/svg">
<path d="M32 6.00024C30.75 6.00024 29.5078 6.42212 28.4375 7.18774L25.125 9.50024L21.3125 10.0002H21.25L21.1875 10.0627C18.6406 10.6331 16.6328 12.6409 16.0625 15.1877L16 15.2502V15.3127L15.5 19.1877L13.1875 22.1877L13.125 22.2502V22.3127C11.7266 24.5471 11.6641 27.4299 13.1875 29.5627L15.5625 32.8752L16.1875 36.3127L9.75 46.1252L7.6875 49.1877H17.25L19.5625 54.5627L21 58.0002L23.0625 54.8752L29.375 45.3752C31.0703 46.0706 32.9844 46.1331 34.625 45.3752L40.9375 54.8752L43 58.0002L44.4375 54.5627L46.75 49.1877H56.3125L54.25 46.1252L48 36.6252L48.5 32.8752L50.8125 29.5627L50.875 29.5002V29.4377C52.2734 27.2034 52.3359 24.3831 50.8125 22.2502L48.5 18.9377L47.75 15.1877H47.8125C47.8047 15.1409 47.7578 15.1096 47.75 15.0627C47.3906 12.4456 45.3203 10.3206 42.6875 10.0002H42.625L38.875 9.50024L35.5625 7.18774C34.4922 6.42212 33.25 6.00024 32 6.00024ZM32 10.0627C32.4609 10.0627 32.9141 10.2034 33.25 10.4377L36.8125 13.0002L37.25 13.3127L37.75 13.3752L42.125 14.0002H42.1875C43.0859 14.1018 43.7109 14.7268 43.8125 15.6252V15.7502L44.625 20.1877L44.6875 20.6252L45 21.0002L47.5625 24.5627C48.0391 25.2268 48.1016 26.3518 47.5 27.3127L44.6875 31.2502L44.625 31.7502L44 36.1252V36.1877C43.9609 36.5159 43.8516 36.8206 43.6875 37.0627L43.5625 37.1252V37.1877C43.2734 37.5315 42.875 37.7581 42.375 37.8127H42.25L37.6875 38.6252L37.1875 38.6877L36.8125 39.0002L33.25 41.5627C32.5859 42.0393 31.3984 42.1018 30.4375 41.5002L27.1875 39.0002L26.8125 38.6877L26.25 38.6252L21.875 38.0002H21.8125C21.1953 37.9299 20.7188 37.6096 20.4375 37.1252C20.3125 36.9065 20.2188 36.6487 20.1875 36.3752V36.2502L19.375 31.6877L19.3125 31.1877L19 30.8127L16.4375 27.2502C15.9609 26.5862 15.8984 25.3987 16.5 24.4377L19 21.1877L19.3125 20.8127L19.375 20.2502L19.9375 16.0627C19.9453 16.0315 19.9922 16.0315 20 16.0002C20.25 15.0237 21.0234 14.2502 22 14.0002C22.0312 13.9924 22.0312 13.9456 22.0625 13.9377L26.25 13.3752L26.75 13.3127L27.1875 13.0002L30.75 10.4377C31.0859 10.2034 31.5391 10.0627 32 10.0627ZM45.8125 40.5002L48.875 45.1877H44.0625L43.5625 46.4377L42.1875 49.6252L37.9375 43.1252L38.875 42.4377L42.8125 41.7502V41.8127C42.8594 41.8049 42.8906 41.7581 42.9375 41.7502C44.0156 41.6018 44.9922 41.1487 45.8125 40.5002ZM18.1875 40.5627C19.0391 41.3284 20.125 41.8596 21.3125 42.0002C21.3359 42.0002 21.3516 42.0002 21.375 42.0002L25.1875 42.5002L26.0625 43.1877L21.8125 49.6252L20.4375 46.4377L19.9375 45.1877H15.125L18.1875 40.5627Z" fill="#CF67D8"/>
</svg>
