<svg width="32" height="33" viewBox="0 0 32 33" fill="none" xmlns="http://www.w3.org/2000/svg">
<g id="Group 1000001749">
<circle id="Ellipse 795" cx="16" cy="16.0376" r="16" fill="#CF67D8"/>
<path id="Vector" d="M21.6683 10.9027C20.1648 9.39871 18.1628 8.57471 16.0322 8.57471C11.6422 8.57471 8.06432 12.1347 8.06432 16.5027C8.06432 17.9027 8.43417 19.2627 9.12563 20.4627L8 24.5747L12.2211 23.4707C13.3869 24.1027 14.6975 24.4387 16.0322 24.4387C20.4221 24.4387 24 20.8787 24 16.5107C24 14.3907 23.1719 12.3987 21.6683 10.9027ZM16.0322 23.0947C14.8422 23.0947 13.6764 22.7747 12.6553 22.1747L12.4141 22.0307L9.90553 22.6867L10.5729 20.2547L10.4121 20.0067C9.75276 18.9587 9.39899 17.7427 9.39899 16.5027C9.39899 12.8707 12.3739 9.91071 16.0241 9.91071C17.793 9.91071 19.4573 10.5987 20.7035 11.8467C21.9578 13.0947 22.6412 14.7507 22.6412 16.5107C22.6573 20.1427 19.6824 23.0947 16.0322 23.0947ZM19.6663 18.1667C19.4653 18.0707 18.4844 17.5907 18.3075 17.5187C18.1226 17.4547 17.994 17.4227 17.8573 17.6147C17.7206 17.8147 17.3427 18.2627 17.2301 18.3907C17.1176 18.5267 16.997 18.5427 16.796 18.4387C16.595 18.3427 15.9518 18.1267 15.196 17.4547C14.601 16.9267 14.207 16.2787 14.0864 16.0787C13.9739 15.8787 14.0704 15.7747 14.1749 15.6707C14.2633 15.5827 14.3759 15.4387 14.4724 15.3267C14.5688 15.2147 14.609 15.1267 14.6734 14.9987C14.7377 14.8627 14.7055 14.7507 14.6573 14.6547C14.609 14.5587 14.207 13.5827 14.0462 13.1827C13.8854 12.7987 13.7166 12.8467 13.596 12.8387C13.4754 12.8387 13.3467 12.8387 13.21 12.8387C13.0734 12.8387 12.8643 12.8867 12.6794 13.0867C12.5025 13.2867 11.9879 13.7667 11.9879 14.7427C11.9879 15.7187 12.7035 16.6627 12.8 16.7907C12.8965 16.9267 14.207 18.9267 16.201 19.7827C16.6754 19.9907 17.0452 20.1107 17.3347 20.1987C17.809 20.3507 18.2432 20.3267 18.5889 20.2787C18.9749 20.2227 19.7709 19.7987 19.9317 19.3347C20.1005 18.8707 20.1005 18.4787 20.0442 18.3907C19.9879 18.3027 19.8673 18.2627 19.6663 18.1667Z" fill="white"/>
</g>
</svg>
